<?xml version="1.0" standalone="no"?><!DOCTYPE svg PUBLIC "-//W3C//DTD SVG 1.1//EN" "http://www.w3.org/Graphics/SVG/1.1/DTD/svg11.dtd"><svg t="1697783986974" class="icon" viewBox="0 0 1024 1024" version="1.1" xmlns="http://www.w3.org/2000/svg" p-id="3993" xmlns:xlink="http://www.w3.org/1999/xlink" width="200" height="200"><path d="M896.96 615.488c23.488 0 42.688 19.2 40.576 42.624v78.976a200.32 200.32 0 0 1-200.576 200.512H286.848a200.32 200.32 0 0 1-200.512-200.512v-78.976c0-23.424 19.2-42.624 42.624-42.624 23.488 0 42.688 19.2 42.688 42.624v78.976c0 64 51.2 115.2 115.2 115.2h452.288c64 0 115.2-51.2 115.2-115.2v-78.976c0-23.424 19.2-42.624 42.624-42.624z m-384-529.088c2.176 0 4.288 2.112 6.4 2.112 0 2.176 2.176 2.176 2.176 2.176l1.28 0.256c0.832 0.256 1.92 0.768 2.944 1.856l6.4 6.4 177.088 185.6c17.088 17.088 14.912 42.688-2.112 59.712-17.088 17.088-42.688 14.976-59.776-2.112L549.248 235.712V630.4c0 23.488-19.2 42.688-42.688 42.688a42.816 42.816 0 0 1-42.624-42.688V235.712L365.76 342.4a41.216 41.216 0 0 1-59.712 2.112 41.216 41.216 0 0 1-2.112-59.712l172.8-185.6 6.4-6.4s2.112-2.112 4.224-2.112c0-2.176 2.176-2.176 2.176-2.176 2.112 0 4.224-2.112 6.4-2.112z" p-id="3994"></path></svg>